<svg fill="#605b54" xmlns="http://www.w3.org/2000/svg"  viewBox="0 0 64 64" width="64px" height="64px"><path d="M 32.5 7 C 19.533574 7 9 17.532564 9 30.5 C 9 34.672231 10.141117 38.569173 12.050781 41.966797 L 10.017578 52.816406 A 1.0001 1.0001 0 0 0 11.28125 53.958984 L 21.207031 51.039062 C 24.565375 52.889983 28.397648 54 32.5 54 C 39.269002 54 45.624526 51.320365 49.736328 46.472656 C 51.688927 44.169937 52.909128 40.929101 53.099609 37.130859 C 53.172369 36.999175 53.277972 36.891526 53.347656 36.757812 C 55.833697 31.987482 56.270718 25.92294 53.222656 19.410156 A 1.0001 1.0001 0 0 0 53.197266 19.359375 C 49.226966 11.998494 41.439593 7 32.5 7 z M 32.5 9 C 40.685416 9 47.786536 13.570014 51.421875 20.291016 C 53.574823 24.908101 53.791119 29.086319 52.783203 32.705078 C 52.607857 31.716761 52.521396 30.762156 52.1875 29.716797 A 1.0006407 1.0006407 0 1 0 50.28125 30.326172 C 51.000401 32.577683 51.181428 34.578011 51.158203 36.458984 C 48.935538 40.283279 45.244313 43.181388 41.117188 44.642578 C 37.11557 43.330229 32.586478 41.442889 28.806641 38.048828 C 24.993881 34.625205 21.940867 29.687964 20.916016 22.169922 C 22.144667 19.874484 24.089974 18.050319 26.818359 17.498047 C 28.46648 20.879003 29.904008 24.635408 30.125 25.236328 C 29.980583 25.37142 29.991865 25.416787 29.583984 25.654297 C 28.856321 26.078018 27.702301 26.53494 25.978516 26.572266 A 1.0001 1.0001 0 0 0 25.083984 27.972656 C 26.93832 32.20508 30.761667 36.507869 35.222656 39.773438 A 1.0001 1.0001 0 0 0 36.808594 38.867188 C 36.808594 38.867188 36.648896 36.43556 38.404297 34.119141 C 40.913019 35.415305 44.141114 36.954361 45.228516 37.466797 C 44.743036 38.209654 44.23418 38.998545 43.460938 39.642578 A 1.0001 1.0001 0 1 0 44.740234 41.177734 C 45.990779 40.136158 47.078972 38.843671 47.677734 37.519531 A 1.0001 1.0001 0 0 0 47.191406 36.201172 C 47.191406 36.201172 41.071112 33.324122 38.550781 31.966797 A 1.0001 1.0001 0 0 0 37.34375 32.166016 C 35.848783 33.775625 35.244206 35.508609 34.990234 36.861328 C 31.856192 34.285929 29.139252 31.29943 27.564453 28.345703 C 28.811408 28.130355 29.883994 27.79497 30.591797 27.382812 C 31.584884 26.804534 32.121094 26.146484 32.121094 26.146484 A 1.0001 1.0001 0 0 0 32.275391 25.185547 C 32.275391 25.185547 30.340596 19.833825 28.289062 15.867188 A 1.0001 1.0001 0 0 0 27.291016 15.332031 C 23.30861 15.774398 20.501159 18.432554 18.957031 21.486328 A 1.0001 1.0001 0 0 0 18.857422 22.0625 C 19.881564 30.223806 23.27235 35.767247 27.470703 39.537109 C 31.669056 43.306972 36.634784 45.323606 40.826172 46.675781 A 1.0001 1.0001 0 0 0 41.451172 46.671875 C 44.888453 45.520162 48.047331 43.437202 50.517578 40.701172 C 49.972285 42.428991 49.223932 43.985051 48.210938 45.179688 C 44.52274 49.527971 38.740998 52 32.5 52 C 28.581112 52 24.91761 50.949501 21.753906 49.119141 A 1.0001 1.0001 0 0 0 20.970703 49.025391 L 12.283203 51.580078 L 14.070312 42.054688 A 1.0001 1.0001 0 0 0 13.949219 41.363281 C 12.07688 38.173901 11 34.467752 11 30.5 C 11 18.613436 20.614426 9 32.5 9 z"/></svg>